<?xml version="1.0" encoding="utf-8"?>
<!-- Generator: Adobe Illustrator 16.0.0, SVG Export Plug-In . SVG Version: 6.00 Build 0)  -->
<!DOCTYPE svg PUBLIC "-//W3C//DTD SVG 1.1//EN" "http://www.w3.org/Graphics/SVG/1.1/DTD/svg11.dtd">
<svg version="1.1" id="Layer_1" xmlns="http://www.w3.org/2000/svg" xmlns:xlink="http://www.w3.org/1999/xlink" x="0px" y="0px"
	 width="48px" height="48px" viewBox="0 0 48 48" enable-background="new 0 0 48 48" xml:space="preserve">
<g>
	<path d="M33.872,29.433c-0.148-0.839-0.877-1.435-1.73-1.435h-0.55l-0.163-1.697c-1.451-0.36-2.809-0.957-4.032-1.747l0.329,3.444
		H8.591l0.339-3.549c0.228-2.376,2.2-4.183,4.588-4.183h0.547v0.681c0,0.973,0.763,1.772,1.735,1.772h4.715
		c0.974,0,1.729-0.8,1.729-1.772v-0.681h0.555c0.141,0,0.28,0.007,0.417,0.019c-0.731-1.186-1.284-2.494-1.619-3.885h-8.078
		c-4.38,0-7.999,3.312-8.417,7.672l-0.374,3.926H4.174c-0.853,0-1.581,0.596-1.73,1.435l-1.456,8.246
		c-0.18,1.022,0.101,2.069,0.769,2.866c0.641,0.765,1.604,1.214,2.57,1.249v1.37c0,1.941,1.575,3.493,3.517,3.493h1.104
		c1.941,0,3.481-1.552,3.481-3.493v-1.339h11.449v1.339c0,1.941,1.549,3.493,3.49,3.493h1.106c1.941,0,3.506-1.552,3.506-3.493
		v-1.37c0.967-0.036,1.933-0.488,2.574-1.253c0.668-0.796,0.953-1.847,0.774-2.87L33.872,29.433z M7.425,38.632
		c-1.64,0-2.968-1.329-2.968-2.968c0-1.64,1.328-2.968,2.968-2.968c1.638,0,2.967,1.328,2.967,2.968
		C10.392,37.303,9.063,38.632,7.425,38.632z M28.893,38.632c-1.64,0-2.968-1.329-2.968-2.968c0-1.64,1.328-2.968,2.968-2.968
		c1.638,0,2.967,1.328,2.967,2.968C31.859,37.303,30.53,38.632,28.893,38.632z"/>
	<path d="M34.675,1.563c-6.623,0-12.013,5.388-12.013,12.013c0,6.624,5.39,12.014,12.013,12.014c6.625,0,12.013-5.39,12.013-12.014
		C46.688,6.95,41.3,1.563,34.675,1.563z M34.675,21.261c-4.237,0-7.685-3.447-7.685-7.686c0-4.237,3.447-7.686,7.685-7.686
		c4.238,0,7.686,3.448,7.686,7.686C42.36,17.813,38.913,21.261,34.675,21.261z"/>
	<path d="M39.003,12.386h-2.859V8.534c0-0.796-0.652-1.442-1.449-1.442c-0.796,0-1.449,0.646-1.449,1.442v4.167
		c0,1.414,1.138,2.584,2.553,2.584h3.205c0.796,0,1.442-0.653,1.442-1.45C40.445,13.04,39.799,12.386,39.003,12.386z"/>
</g>
</svg>
