<?xml version="1.0" encoding="iso-8859-1"?>
<!-- Generator: Adobe Illustrator 17.1.0, SVG Export Plug-In . SVG Version: 6.00 Build 0)  -->
<!DOCTYPE svg PUBLIC "-//W3C//DTD SVG 1.1//EN" "http://www.w3.org/Graphics/SVG/1.1/DTD/svg11.dtd">
<svg version="1.1" id="Artwork" xmlns="http://www.w3.org/2000/svg" xmlns:xlink="http://www.w3.org/1999/xlink" x="0px" y="0px"
	 width="512px" height="512px" viewBox="0 0 512 512" style="enable-background:new 0 0 512 512;" xml:space="preserve">
<path d="M493.43,76.926H18.57C11.628,76.926,6,82.554,6,89.497v172.935c0,6.942,5.628,12.57,12.57,12.57h84.374v118.274H40.665
	c-6.942,0-12.571,5.628-12.571,12.571v17.141c0,6.942,5.629,12.57,12.571,12.57h149.7c6.942,0,12.569-5.628,12.569-12.57v-17.141
	c0-6.942-5.627-12.571-12.569-12.571h-62.28V275.002h261.118v118.274h-62.28c-6.942,0-12.569,5.628-12.569,12.571v17.141
	c0,6.942,5.627,12.57,12.569,12.57h149.701c6.942,0,12.569-5.628,12.569-12.57v-17.141c0-6.942-5.627-12.571-12.569-12.571h-62.28
	V275.002h79.086c6.942,0,12.57-5.628,12.57-12.57V89.497C506,82.554,500.372,76.926,493.43,76.926z M48.372,249.862H31.142v-53.036
	l107.727-94.76h69.491L48.372,249.862z M141.373,249.862l160.578-147.795h68.677L210.05,249.862H141.373z M480.859,155.102
	l-107.728,94.76H303.64l159.989-147.795h17.23V155.102z"/>
</svg>
